<svg id="Layer_1" data-name="Layer 1" xmlns="http://www.w3.org/2000/svg" viewBox="0 0 767.67 761.37"><defs><style>.cls-1{fill:#fff;}</style></defs><path class="cls-1" d="M634.86,209.4l3.08-46.93c-18.85-8.35-38.47-15.62-58.69-20.05-5.08-1.11-13.61-3.3-18.46-3.53-4.7-.23-6.87,4.1-9.73,7.48-8.47,10-25.9,39.56-35.52,44.38-8.33,4.18-19.63.87-29.12,1.43-4,.24-9,1.15-13.08,1.81-3.1.5-12,3.42-13.93,2.51L415,142.23a285.73,285.73,0,0,0-64.51,19c-2.29,1-12.33,5.08-13.35,6.23-1.57,1.77-.58,10.29-.74,13.36-.85,16.06-.92,32.2-1,48.37-9.64,14.49-23.91,24.12-37,35-1.43,1.19-3.5,4.05-4.68,4.72-3.83,2.2-19.83-.85-24.86-1.86-14.11-2.81-31-10.51-44.32-12.1-1.55-.18-2.51-.5-4.08.22-3.53,1.61-9.9,14.14-14.12,16.64l-31.77,49.47c10.71,18.25,22.86,36.47,36.88,52.57.35,21.53-11.63,41-12.27,62.54C189.08,441,138,451.79,134.1,460.26c-1.52,3.27-.39,16.67-.54,21.39-.52,15.61-2.64,37.16-.72,52.36.81,6.34,1,7.41,6.41,10.82,14.5,9.07,47.65,12.59,57.95,24.09,1,1.16,3.94,12.77,5.38,16a55.49,55.49,0,0,0,8.47,13.43L195.11,612.8c-8-8.85-12.45-20-17-30.87-19.09-9.22-51.89-11.42-63.12-31.66-3.72-6.7-4-18.47-4.24-26.31-.79-22.26,2.13-45.1,1.58-67.42,2.82-11.85,14.44-18.44,24.81-23,13.25-5.79,27.91-9.07,41.79-13l10.12-36.12a7,7,0,0,0-.35-4.19c-1.26-3.1-10.08-13.14-12.75-17C166.89,350,158.45,336.36,149.61,323c16.93-32.7,38-63.95,63-91.23,24.75,1.6,47.32,13.13,71.74,16.51,10-9.16,22.63-16,30.12-27.53.26-19.57-.53-39.27.81-58.73.11-1.59.86-7.85,1.55-8.64,33.15-16.88,69-29.72,106.19-33.74,17.1,15.86,30.64,35.06,45,53.34,12.44-2,25.48-3,38-1.16C519.31,153,532.67,134,548.28,116.93c3.08-1.75,13.8.43,17.83,1,32.57,5,65.21,16.65,94.27,31.88l-3.5,38.84-22,20.7Z" transform="translate(-110.64 -116.26)"/><path class="cls-1" d="M811.27,568.33l-11.93,40.93L839,666.8c-15.2,34.05-38.47,63.73-61.55,92.89-25,1.08-48.19-10.23-71.69-16.88-1.91,0-3.23,1.39-4.65,2.42-4.6,3.36-11.43,9.33-15.71,13.27-2,1.8-10.21,9.68-10.54,11.4l-.21,62.46c-9.55,16.44-28.62,23.88-46,29.17-22.32,6.78-45.68,10.11-68.42,15.19l-40.47-54.34c-7.67-1.37-15.52.1-23.07.41-4.11.17-15.21-1.08-17.68,1.12-4.49,4-11.32,15.06-15.66,20.37-9.15,11.18-18.74,22-28.53,32.57a3.09,3.09,0,0,1-2.35.78c-4.5.12-16.5-3.16-21.6-4.34a384.66,384.66,0,0,1-76.74-26.64c3.06-2.21,14.83-15.15,17.47-15.1,11.39,4.4,22.75,8.87,34.4,12.57,6.11,1.94,35.86,11.06,40,9.83,2-.6,13.16-14,15.43-16.72C450.8,826,459.41,814,468.41,802.4c2-1.63,9.48-.59,12.55-.76,2.1-.12,4-.78,6.2-.85,14.44-.49,29.07.11,43.5.44L569.41,853c21.69-5,45.59-8,66.21-16.54,3.83-1.58,17.3-8,18-11.76l.21-63.24c11.6-17.22,30.14-27.73,44.16-42.71,23.6,4.46,45.28,16.13,69.22,19,16.95-20.85,32.66-42.75,45.89-66.18l.35-2.71c-12.39-18.69-24.15-38-38.22-55.51l19-62.46c14.43-4.06,29.11-7.48,43.31-12.31,3.06-1,16-5.06,17-7.25,1.22-2.53.17-15.23.35-19.23.77-16.85,2.75-33.95,1.59-50.88-.2-2.88-1.46-13.9-3.64-15.16-14.25-3.64-27.71-9.7-41.78-13.83-6.49-1.91-13.94-1.37-18.79-6.27,3.32-2.56,15.29-15.87,18.36-16,1.71-.05,6.61,1.67,8.66,2.24,10,2.81,19.67,7.12,29.54,10.41,6,2,14.94,3.37,20.19,5.66,3.07,1.34,3.35,4.49,4.3,7.45,8.4,26.23,3.8,54.92,2.71,81.82-.33,8.2.65,16.52-.37,24.7-17.21,15.77-42.65,19.65-64.45,26Z" transform="translate(-110.64 -116.26)"/><path class="cls-1" d="M455.14,397.86c-29.32,39.33-65.37,74.6-91.65,116.33-7.39,11.74-11.59,15.36-3.92,28.85,10.83,19.06,29,42.21,42,60.63,10.8,15.27,21.9,30.34,32.77,45.57,2.76,2.44,5.55,4.15,9.39,3.54.93-16.82.25-33.71.75-50.56.27-9.27,1.23-18.86,1.63-28.14.42-9.69-.49-20.8.95-30.38a12.28,12.28,0,0,1,14.27-10c3.51.69,5.46,8.35,5.79,11.44,2.52,23.23.37,49.33.06,72.72-.27,20.86.72,43.6-.76,64.25-.63,8.87-2.66,23.24-14.5,23.15-8.63-.07-28.12-25.08-33.6-32.21-21.52-28-39-58.8-58.1-88.39-10-15.43-31.82-39.09-30.12-57.67.91-10,19-34.4,25.56-43.38,11.23-15.39,23.52-30.34,35.59-45.09,16.39-20,35.43-44.44,53.23-62.71,5.14-5.28,8.44-8.79,16.69-6.45,12,3.41-2.1,23.21-6,28.47Z" transform="translate(-110.64 -116.26)"/><path class="cls-1" d="M631.54,337.69c-1.1,1.1-4.92,1.16-6.49,1-7.52-.79-23.67-16.22-30.68-21-7.46-5.12-14.4-9.22-19.67,1.2-.18,78,.56,156.14,1.43,234,.13,11.26,1,25.38-2.43,36-3.2,9.82-10,14.19-15.24,2.8-3.5-23.45-2.92-47.24-2.76-70.94.4-60,.32-120.08.79-180.17,0-5.51,1.23-11.25.84-17.23-.5-7.75-.41-16-10.25-11.75C539.14,315,528.3,329,520.86,334.73c-1.3,1-7,5.09-8,5.34-4.71,1.17-6.9-3-6.31-7.08,1.3-8.92,27.45-32.81,34.72-40.54,3.93-4.18,14.07-19,19.49-18.78,3.79.13,12.14,6.38,15.6,8.73,13.5,9.18,30,21.45,42.07,32.35,1.92,1.73,13.15,12.56,13.68,13.73.79,1.74.75,7.89-.56,9.2Z" transform="translate(-110.64 -116.26)"/></svg>